<svg xmlns="http://www.w3.org/2000/svg" viewBox="0 0 120 120" fill="none">
  <!-- Mane outer -->
  <path d="M60 8C36 8 18 28 18 52c0 12 5 23 14 31l-4 14c-1 3 1 6 4 6h56c3 0 5-3 4-6l-4-14c9-8 14-19 14-31C102 28 84 8 60 8z" fill="#0076B6" opacity="0.2"/>
  <!-- Mane detail -->
  <path d="M60 12c-22 0-38 18-38 40 0 10 4 20 12 27l2 2-4 13h56l-4-13 2-2c8-7 12-17 12-27 0-22-16-40-38-40z" fill="#0076B6" opacity="0.35"/>
  <!-- Face base -->
  <ellipse cx="60" cy="58" rx="28" ry="30" fill="#0076B6"/>
  <!-- Inner face -->
  <ellipse cx="60" cy="60" rx="22" ry="24" fill="#B0B7BC" opacity="0.15"/>
  <!-- Eyes -->
  <ellipse cx="48" cy="50" rx="5" ry="5.5" fill="#fff"/>
  <ellipse cx="72" cy="50" rx="5" ry="5.5" fill="#fff"/>
  <ellipse cx="49" cy="50" rx="2.8" ry="3.2" fill="#041E42"/>
  <ellipse cx="73" cy="50" rx="2.8" ry="3.2" fill="#041E42"/>
  <circle cx="50" cy="48.5" r="1" fill="#fff" opacity="0.8"/>
  <circle cx="74" cy="48.5" r="1" fill="#fff" opacity="0.8"/>
  <!-- Brow ridge -->
  <path d="M40 44c2-4 6-6 10-5" stroke="#004d80" stroke-width="2" stroke-linecap="round" fill="none"/>
  <path d="M80 44c-2-4-6-6-10-5" stroke="#004d80" stroke-width="2" stroke-linecap="round" fill="none"/>
  <!-- Nose -->
  <path d="M54 62c2 3 4 5 6 5s4-2 6-5c-2-1-4-2-6-2s-4 1-6 2z" fill="#041E42"/>
  <!-- Mouth / Snarl -->
  <path d="M48 70c4 4 8 5 12 5s8-1 12-5" stroke="#004d80" stroke-width="2" stroke-linecap="round" fill="none"/>
  <path d="M52 68c2 2 5 3 8 3s6-1 8-3" stroke="#B0B7BC" stroke-width="1.2" stroke-linecap="round" fill="none" opacity="0.5"/>
  <!-- Whisker dots -->
  <circle cx="42" cy="64" r="1.2" fill="#B0B7BC" opacity="0.4"/>
  <circle cx="38" cy="62" r="1.2" fill="#B0B7BC" opacity="0.3"/>
  <circle cx="78" cy="64" r="1.2" fill="#B0B7BC" opacity="0.4"/>
  <circle cx="82" cy="62" r="1.2" fill="#B0B7BC" opacity="0.3"/>
  <!-- Ears -->
  <path d="M30 36c-2-10 4-18 12-16 2 0 3 2 2 4l-6 14z" fill="#0076B6"/>
  <path d="M90 36c2-10-4-18-12-16-2 0-3 2-2 4l6 14z" fill="#0076B6"/>
  <path d="M33 34c-1-6 3-12 8-10l-4 10z" fill="#004d80" opacity="0.4"/>
  <path d="M87 34c1-6-3-12-8-10l4 10z" fill="#004d80" opacity="0.4"/>
  <!-- Crown / Mane spikes -->
  <path d="M38 24l-4-10c0-2 2-3 3-2l6 8z" fill="#0076B6" opacity="0.7"/>
  <path d="M50 18l-1-12c0-2 2-3 3-1l3 10z" fill="#0076B6" opacity="0.6"/>
  <path d="M60 15l0-11c0-2 2-2 3 0l0 11z" fill="#0076B6" opacity="0.8"/>
  <path d="M70 18l1-12c0-2-2-3-3-1l-3 10z" fill="#0076B6" opacity="0.6"/>
  <path d="M82 24l4-10c0-2-2-3-3-2l-6 8z" fill="#0076B6" opacity="0.7"/>
</svg>
